# xmcd
#
# Track frame offsets:
#	182
#	17635
#	38707
#	63887
#	77247
#	92067
#	107072
#	124862
#	140075
#	154407
#	167082
#
# Disc length: 2469 seconds
#
# Revision: 1
# Processed by: cddbd v1.5.2PL0 Copyright (c) Steve Scherf et al.
# Submitted via: audiograbber 1.82.02
#
DISCID=8f09a30b
DTITLE=Various Artist - SENSUALS FLAMENGO
DYEAR=1995
DGENRE=Ballad
TTITLE0=MINA - YOU ARE MY LOVE
TTITLE1=MARC ALMOND and GENE PITNEY - SOMETHING'S GOTTEN HOLD OF MY HEART
TTITLE2=SPANDAU BALLET - TRUE
TTITLE3=DR. HOOK - WHEN YOU'RE IN LOVE WITH A BEAUTIFUL WOMAN
TTITLE4=TAVARES - MORE THAN A WOMAN
TTITLE5=AL STEWART - ON THE BOARDER
TTITLE6=LORIE LIEBERMAN - KILLING ME SOFTLY WITH HIS SONG
TTITLE7=MINNIE RIPERTON - LOVIN' YOU
TTITLE8=CILLA BLACK - YOU'VE LOST THAT LOVIN' FEELIN'
TTITLE9=CHRISTOPHE - OH MON AMOUR!
TTITLE10=SMOKIE - DON'T PLAY THAT GAME WITH ME
EXTD=
EXTT0=
EXTT1=
EXTT2=
EXTT3=
EXTT4=
EXTT5=
EXTT6=
EXTT7=
EXTT8=
EXTT9=
EXTT10=
PLAYORDER=
